<svg xmlns="http://www.w3.org/2000/svg" viewBox="0 11.579999923706055 247.52999877929688 37.48000717163086" data-asc="0.96875" width="247.52999877929688" height="37.48000717163086"><defs/><g><g fill="#ffffff"><g transform="translate(0, 0)"><path d="M30.11 23.44L26.78 23.44Q26.40 21.57 25.44 19.98Q24.47 18.39 23.01 17.21Q21.56 16.02 19.71 15.36Q17.86 14.70 15.71 14.70Q12.27 14.70 9.44 16.50Q6.61 18.29 4.91 21.76Q3.21 25.23 3.21 30.26Q3.21 35.32 4.91 38.78Q6.61 42.24 9.44 44.03Q12.27 45.81 15.71 45.81Q17.86 45.81 19.71 45.15Q21.56 44.50 23.01 43.31Q24.47 42.13 25.44 40.54Q26.40 38.94 26.78 37.07L30.11 37.07Q29.67 39.58 28.45 41.73Q27.24 43.89 25.36 45.51Q23.49 47.12 21.06 48.03Q18.63 48.93 15.71 48.93Q11.13 48.93 7.58 46.64Q4.03 44.34 2.02 40.15Q0 35.96 0 30.26Q0 24.56 2.02 20.37Q4.03 16.18 7.58 13.88Q11.13 11.58 15.71 11.58Q18.63 11.58 21.06 12.47Q23.49 13.37 25.36 14.99Q27.24 16.62 28.45 18.77Q29.67 20.92 30.11 23.44ZM54.60 38.01L54.60 21.16L57.76 21.16L57.76 48.44L54.60 48.44L54.60 43.91L54.35 43.91Q53.39 46.00 51.31 47.40Q49.24 48.79 46.24 48.79Q43.63 48.79 41.60 47.65Q39.58 46.50 38.42 44.28Q37.27 42.06 37.27 38.83L37.27 21.16L40.43 21.16L40.43 38.64Q40.43 41.83 42.31 43.78Q44.19 45.72 47.14 45.72Q48.99 45.72 50.69 44.83Q52.40 43.95 53.50 42.23Q54.60 40.52 54.60 38.01ZM66.10 48.44L66.10 21.16L69.18 21.16L69.18 25.36L69.41 25.36Q70.22 23.30 72.26 22.03Q74.29 20.76 76.86 20.76Q77.25 20.76 77.73 20.77Q78.21 20.79 78.53 20.81L78.53 24.02Q78.32 23.99 77.79 23.92Q77.25 23.85 76.63 23.85Q74.50 23.85 72.84 24.74Q71.18 25.64 70.22 27.22Q69.26 28.80 69.26 30.82L69.26 48.44L66.10 48.44ZM91.55 49.06Q89.08 49.06 87.04 48.09Q85.00 47.12 83.79 45.29Q82.58 43.45 82.58 40.82Q82.58 38.80 83.35 37.41Q84.11 36.03 85.51 35.14Q86.91 34.25 88.83 33.74Q90.75 33.22 93.06 32.94Q95.35 32.65 96.94 32.44Q98.53 32.23 99.36 31.76Q100.20 31.30 100.20 30.27L100.20 29.63Q100.20 26.85 98.54 25.24Q96.88 23.63 93.77 23.63Q90.82 23.63 88.96 24.93Q87.11 26.23 86.36 27.98L83.36 26.90Q84.29 24.66 85.92 23.32Q87.55 21.98 89.58 21.39Q91.60 20.79 93.68 20.79Q95.24 20.79 96.94 21.20Q98.63 21.61 100.09 22.61Q101.54 23.62 102.45 25.40Q103.36 27.18 103.36 29.92L103.36 48.44L100.20 48.44L100.20 44.12L100 44.12Q99.43 45.33 98.31 46.47Q97.19 47.60 95.51 48.33Q93.82 49.06 91.55 49.06M91.97 46.16Q94.50 46.16 96.34 45.05Q98.19 43.93 99.19 42.07Q100.20 40.22 100.20 37.98L100.20 34.04Q99.84 34.38 99.01 34.64Q98.19 34.91 97.11 35.11Q96.04 35.32 94.98 35.46Q93.91 35.60 93.06 35.71Q90.75 35.99 89.12 36.59Q87.48 37.20 86.61 38.25Q85.74 39.31 85.74 40.96Q85.74 43.45 87.52 44.81Q89.29 46.16 91.97 46.16ZM122.50 21.16L122.50 23.92L109.48 23.92L109.48 21.16L122.50 21.16M113.55 14.63L116.73 14.63L116.73 41.32Q116.73 43.02 117.31 43.99Q117.90 44.96 118.84 45.36Q119.78 45.76 120.85 45.76Q121.47 45.76 121.91 45.68Q122.35 45.60 122.69 45.51L123.37 48.37Q122.90 48.54 122.23 48.69Q121.56 48.85 120.56 48.85Q118.82 48.85 117.21 48.08Q115.61 47.32 114.58 45.81Q113.55 44.30 113.55 42.06L113.55 14.63ZM140.70 49.01Q136.88 49.01 134.09 47.22Q131.30 45.44 129.79 42.27Q128.27 39.10 128.27 34.96Q128.27 30.84 129.79 27.64Q131.30 24.43 133.99 22.61Q136.68 20.79 140.22 20.79Q142.44 20.79 144.50 21.60Q146.56 22.41 148.20 24.07Q149.84 25.73 150.80 28.24Q151.76 30.75 151.76 34.18L151.76 35.74L130.45 35.74L130.45 32.95L148.53 32.95Q148.53 30.33 147.47 28.22Q146.41 26.12 144.54 24.89Q142.67 23.67 140.22 23.67Q137.62 23.67 135.65 25.05Q133.68 26.44 132.57 28.71Q131.46 30.98 131.45 33.68L131.45 35.35Q131.45 38.60 132.57 41.02Q133.70 43.45 135.78 44.78Q137.86 46.11 140.70 46.11Q142.63 46.11 144.10 45.51Q145.56 44.90 146.56 43.88Q147.57 42.86 148.08 41.64L151.08 42.61Q150.46 44.34 149.05 45.79Q147.64 47.25 145.53 48.13Q143.43 49.01 140.70 49.01ZM159.36 48.44L159.36 12.07L171.09 12.07Q174.96 12.07 177.57 13.56Q180.17 15.04 181.49 17.58Q182.81 20.12 182.81 23.30Q182.81 26.47 181.50 29.02Q180.18 31.57 177.59 33.05Q175 34.53 171.15 34.53L161.91 34.53L161.91 31.55L171.06 31.55Q173.92 31.55 175.80 30.48Q177.68 29.40 178.61 27.54Q179.55 25.67 179.55 23.30Q179.55 20.92 178.61 19.05Q177.68 17.19 175.79 16.12Q173.90 15.06 171.00 15.06L162.68 15.06L162.68 48.44L159.36 48.44ZM201.28 48.44L190.63 48.44L190.63 12.07L201.92 12.07Q207.12 12.07 210.82 14.24Q214.52 16.41 216.50 20.45Q218.47 24.50 218.47 30.17Q218.47 35.88 216.45 39.98Q214.44 44.07 210.59 46.25Q206.75 48.44 201.28 48.44M193.95 45.45L201.08 45.45Q205.77 45.45 208.93 43.61Q212.09 41.76 213.67 38.33Q215.25 34.91 215.25 30.17Q215.23 25.46 213.70 22.07Q212.16 18.68 209.15 16.87Q206.14 15.06 201.72 15.06L193.95 15.06L193.95 45.45ZM226.49 48.44L226.49 12.07L247.53 12.07L247.53 15.06L229.81 15.06L229.81 28.75L245.88 28.75L245.88 31.73L229.81 31.73L229.81 48.44L226.49 48.44Z"/></g></g></g></svg>