<svg xmlns="http://www.w3.org/2000/svg" viewBox="0 13 301.54998779296875 46.75" data-asc="1" width="301.54998779296875" height="46.75"><defs/><g><g fill="#ffffff"><g transform="translate(0, 0)"><path d="M0 50L0 13L13.30 13Q17.80 13 21.18 14.57Q24.55 16.15 26.80 18.80Q29.05 21.45 30.17 24.75Q31.30 28.05 31.30 31.50Q31.30 34.95 30.17 38.25Q29.05 41.55 26.80 44.20Q24.55 46.85 21.18 48.42Q17.80 50 13.30 50L0 50M13.00 18.95L6.80 18.95L6.80 44L13.00 44Q16.90 44 19.45 42.17Q22 40.35 23.25 37.48Q24.50 34.60 24.50 31.45Q24.50 28.35 23.25 25.47Q22 22.60 19.45 20.77Q16.90 18.95 13.00 18.95ZM38.45 59.75Q37.15 59.75 36.32 59.65Q35.50 59.55 35.50 59.55L35.50 54.10Q35.50 54.10 36.25 54.17Q37 54.25 38 54.25Q40.55 54.25 42.22 53.42Q43.90 52.60 45.05 50.35L35.10 23.50L41.85 23.50L48.50 42.40L55.05 23.50L61.80 23.50L52.10 49.35Q50.10 54.65 46.95 57.20Q43.80 59.75 38.45 59.75ZM66.25 50L66.25 23.50L72.90 23.50L72.90 27.30L73.20 27.30Q73.60 26.60 74.45 25.57Q75.30 24.55 76.80 23.77Q78.30 23 80.60 23Q83.65 23 85.63 24.38Q87.60 25.75 88.58 28Q89.55 30.25 89.55 32.85L89.55 50L82.90 50L82.90 33.75Q82.90 31.60 81.70 30.05Q80.50 28.50 78.10 28.50Q76.25 28.50 75.10 29.42Q73.95 30.35 73.42 31.80Q72.90 33.25 72.90 34.85L72.90 50L66.25 50ZM106.90 23Q109.45 23 111.10 23.82Q112.75 24.65 113.70 25.63Q114.65 26.60 115 27.20L115.30 27.20L115.30 23.50L121.95 23.50L121.95 50L115.30 50L115.30 46.30L115 46.30Q114.65 46.90 113.70 47.90Q112.75 48.90 111.10 49.70Q109.45 50.50 106.90 50.50Q103.95 50.50 101.75 49.33Q99.55 48.15 98.08 46.17Q96.60 44.20 95.88 41.75Q95.15 39.30 95.15 36.75Q95.15 34.20 95.88 31.75Q96.60 29.30 98.08 27.32Q99.55 25.35 101.75 24.17Q103.95 23 106.90 23M108.65 28.45Q106.40 28.45 104.88 29.67Q103.35 30.90 102.60 32.80Q101.85 34.70 101.85 36.75Q101.85 38.80 102.60 40.70Q103.35 42.60 104.88 43.83Q106.40 45.05 108.65 45.05Q110.90 45.05 112.40 43.83Q113.90 42.60 114.65 40.70Q115.40 38.80 115.40 36.75Q115.40 34.70 114.65 32.80Q113.90 30.90 112.40 29.67Q110.90 28.45 108.65 28.45ZM128.25 50L128.25 23.50L134.90 23.50L134.90 27.20L135.15 27.20Q135.65 26.30 136.55 25.32Q137.45 24.35 138.88 23.67Q140.30 23 142.40 23Q145.35 23 147.25 24.40Q149.15 25.80 150.05 28L150.15 28Q151.15 26.10 153.13 24.55Q155.10 23 158.40 23Q161.20 23 163.08 24.27Q164.95 25.55 165.88 27.70Q166.80 29.85 166.80 32.35L166.80 50L160.15 50L160.15 33.75Q160.15 31.45 159.03 29.97Q157.90 28.50 155.70 28.50Q153.95 28.50 152.88 29.42Q151.80 30.35 151.33 31.75Q150.85 33.15 150.85 34.60L150.85 50L144.20 50L144.20 33.75Q144.20 31.45 143.10 29.97Q142 28.50 139.75 28.50Q138 28.50 136.93 29.42Q135.85 30.35 135.38 31.77Q134.90 33.20 134.90 34.60L134.90 50L128.25 50ZM186.00 50.50Q181.65 50.50 178.60 48.55Q175.55 46.60 173.98 43.48Q172.40 40.35 172.40 36.75Q172.40 33.15 173.98 30.02Q175.55 26.90 178.60 24.95Q181.65 23 186.00 23Q190.40 23 193.43 24.95Q196.45 26.90 198.03 30.02Q199.60 33.15 199.60 36.75Q199.60 40.35 198.03 43.48Q196.45 46.60 193.43 48.55Q190.40 50.50 186.00 50.50M186.00 44.95Q188.25 44.95 189.78 43.80Q191.30 42.65 192.10 40.77Q192.90 38.90 192.90 36.75Q192.90 34.55 192.10 32.70Q191.30 30.85 189.78 29.70Q188.25 28.55 186.00 28.55Q183.80 28.55 182.25 29.70Q180.70 30.85 179.90 32.70Q179.10 34.55 179.10 36.75Q179.10 38.90 179.90 40.77Q180.70 42.65 182.25 43.80Q183.80 44.95 186.00 44.95ZM205.70 50L205.70 13L220.30 13Q224.75 13 227.70 14.77Q230.65 16.55 232.13 19.38Q233.60 22.20 233.60 25.25Q233.60 28.30 232.13 31.13Q230.65 33.95 227.70 35.75Q224.75 37.55 220.30 37.55L212.50 37.55L212.50 50L205.70 50M220.25 18.90L212.50 18.90L212.50 31.65L220.25 31.65Q222.45 31.65 223.90 30.72Q225.35 29.80 226.08 28.32Q226.80 26.85 226.80 25.30Q226.80 23.70 226.08 22.25Q225.35 20.80 223.90 19.85Q222.45 18.90 220.25 18.90ZM239.05 50L239.05 13L252.35 13Q256.85 13 260.23 14.57Q263.60 16.15 265.85 18.80Q268.10 21.45 269.23 24.75Q270.35 28.05 270.35 31.50Q270.35 34.95 269.23 38.25Q268.10 41.55 265.85 44.20Q263.60 46.85 260.23 48.42Q256.85 50 252.35 50L239.05 50M252.05 18.95L245.85 18.95L245.85 44L252.05 44Q255.95 44 258.50 42.17Q261.05 40.35 262.30 37.48Q263.55 34.60 263.55 31.45Q263.55 28.35 262.30 25.47Q261.05 22.60 258.50 20.77Q255.95 18.95 252.05 18.95ZM276.20 50L276.20 13L301.55 13L301.55 18.90L283 18.90L283 29.40L299.30 29.40L299.30 35.20L283 35.20L283 50L276.20 50Z"/></g><g transform="translate(0, 63.25)"><path d=""/></g></g></g></svg>